<?xml version='1.0' encoding='UTF-8'?>
<svg x="0px" y="0px" viewBox="0 0 32 32" version="1.1" xmlns="http://www.w3.org/2000/svg" xmlns:xlink="http://www.w3.org/1999/xlink" xml:space="preserve" id="Layer_1" style="enable-background:new 0 0 32 32">
  <style type="text/css">
	.Green{fill:#039C23;}
	.Black{fill:#727272;}
	.Red{fill:#D11C1C;}
	.Yellow{fill:#FFB115;}
	.Blue{fill:#1177D7;}
	.White{fill:#FFFFFF;}
	.st0{opacity:0.5;}
	.st1{opacity:0.75;}
</style>
  <g id="AutoExpand">
    <path d="M19,10h-8c-0.6,0-1-0.4-1-1V5c0-0.6,0.4-1,1-1h8c0.5,0,1,0.4,1,1v4C20,9.6,19.5,10,19,10z M32,19v-4   c0-0.6-0.5-1-1-1h-8c-0.5,0-1,0.4-1,1v4c0,0.5,0.5,1,1,1h8C31.5,20,32,19.5,32,19z M32,27v-4c0-0.5-0.5-1-1-1h-8c-0.5,0-1,0.5-1,1   v4c0,0.5,0.5,1,1,1h8C31.5,28,32,27.5,32,27z" class="Yellow" />
    <path d="M0,4h8L4,8L0,4z M16,24v-6h4v-2h-4v-4h-2v14h6v-2H16z" class="Black" />
  </g>
</svg>